<?xml version="1.0" encoding="utf-8"?>
<!-- Generator: Adobe Illustrator 22.1.0, SVG Export Plug-In . SVG Version: 6.00 Build 0)  -->
<svg version="1.1" id="Layer_1" xmlns="http://www.w3.org/2000/svg" xmlns:xlink="http://www.w3.org/1999/xlink" x="0px" y="0px"
	 viewBox="0 0 801 193.5" style="enable-background:new 0 0 801 193.5;" xml:space="preserve">
<style type="text/css">
	.st0{fill:#ED1C24;}
</style>
<path class="st0" d="M212,48.7c-26.6,0-47.5,21.8-47.5,49.7c0,27.5,20.8,49,47.5,49c26.6,0,47.5-21.5,47.5-49
	C259.5,70.5,238.7,48.7,212,48.7z M212,127.3c-14.1,0-24.8-12.5-24.8-29c0-16.9,10.6-29.6,24.8-29.6c14.2,0,24.9,12.7,24.9,29.6
	C237,114.9,226.3,127.3,212,127.3z M374.7,9.1H357c-1.5,0-2.7,1.2-2.7,2.7v130.1c0,1.5,1.2,2.6,2.6,2.6h17.7c1.5,0,2.7-1.2,2.7-2.7
	V11.8C377.3,10.3,376.2,9.1,374.7,9.1z M336.3,51.1c-4.2-0.9-11.1-2.4-21.6-2.4c-18.3,0-36.7,5.7-36.7,34.6v58.6
	c0,1.5,1.2,2.6,2.6,2.6h17.7c1.5,0,2.7-1.2,2.7-2.7c0,0,0-54.3,0-58.1c0-4.2,0.7-14.8,16.6-14.8c6.6,0,13,1.1,14.3,1.3
	c1.4,0.2,2.6-0.3,3-1.7l3.8-14.3C339.3,52.6,338.2,51.5,336.3,51.1z M154.2,51.5h-18.9c-1.2,0-2.2,0.8-2.5,1.9l-18,63.6L98.2,60.5
	c-1.4-5.3-6.3-8.9-11.8-8.9h-5.8c-5.5,0-10.3,3.7-11.8,8.9l-16.5,56.6l-18-63.6c-0.3-1.1-1.3-1.9-2.5-1.9H12.9
	c-1.8,0-3.1,1.7-2.5,3.5l25.8,80.9c1.6,5.2,6.4,8.6,11.8,8.6h7.6c5.4,0,10.3-3.6,11.9-8.9l16-54.2l16,54.2c1.5,5.2,6.4,8.9,11.9,8.9
	h7.6c5.4,0,10.2-3.5,11.8-8.6L156.7,55C157.2,53.3,155.9,51.5,154.2,51.5z M788,51.5h-18.1c0,0-2.1,0-2.8,1.8l-24.8,65.6l-24.8-65.7
	c-0.4-1-1.5-1.7-2.6-1.7h-18.1c-2.5,0-3.3,2-2.7,3.6l36.3,91.1l-14.7,37.1c-0.7,1.8,0.1,3.6,2.5,3.6H736c1.1,0,2.1-0.7,2.5-1.7
	l51.9-129.8C791.4,53.1,789.8,51.5,788,51.5z M478.8,9.1h-17.7c-1.5,0-2.6,1.2-2.6,2.6v39c-3.4-0.7-9.5-2.1-19.5-2.1
	c-35.3,0-42.6,31.7-42.6,49.1c0,38.3,23,49.6,44.6,49.6c18.4,0,30.9-4.4,36.9-7c3.6-1.6,3.6-3.7,3.6-5.5v-123
	C481.5,10.3,480.3,9.1,478.8,9.1z M458.4,125.3c0,0-7,2.1-14.9,2.1c-18.5,0-23-13.1-23-28.7c0-5.6-0.6-29.7,22.1-29.7
	c7.7,0,15.8,2.1,15.8,2.1V125.3z M645.9,48.7c-15.7,0-24.6,2.1-33.1,4.5c-2.3,0.6-3.2,2.2-2.6,4.8l2.6,10.7c0.3,1.6,1.8,3.7,4.3,3
	c5.5-1.4,14-4.1,26.3-4.1c12.4,0,15.6,4.6,15.6,15.7h-15.3c-32.6,0-41.6,17.2-41.6,31.3c0,17.7,8.6,32.7,39.3,32.7
	c23.1,0,34.6-5.8,37.2-7.2c2.1-1.1,3.3-1.9,3.3-5.6V81C681.9,56.7,667.6,48.7,645.9,48.7z M658.9,126.7c0,0-7.1,2.4-16.7,2.4
	c-13.3,0-17.1-6.7-17.1-13.5c0-8.8,5.8-14.5,18.5-14.5h15.3V126.7z M543.5,48.7c-18.4,0-30.9,4.4-36.9,7c-3.6,1.6-3.6,3.7-3.6,5.5
	v123c0,1.5,1.2,2.6,2.6,2.6h17.7c1.5,0,2.6-1.2,2.6-2.6v-39c3.4,0.7,9.5,2.1,19.5,2.1c35.3,0,42.6-31.7,42.6-49.1
	C588.1,59.9,565,48.7,543.5,48.7z M541.8,127.1c-7.7,0-15.8-2.1-15.8-2.1V70.8c0,0,7-2.1,14.9-2.1c18.5,0,23,13.1,23,28.7
	C563.9,102.9,564.5,127.1,541.8,127.1z"/>
</svg>
